<svg xmlns="http://www.w3.org/2000/svg" xmlns:xlink="http://www.w3.org/1999/xlink" viewBox="0,0,256,256" width="48px" height="48px" fill-rule="nonzero"><g fill="none" fill-rule="nonzero" stroke="none" stroke-width="1" stroke-linecap="butt" stroke-linejoin="miter" stroke-miterlimit="10" stroke-dasharray="" stroke-dashoffset="0" font-family="none" font-weight="none" font-size="none" text-anchor="none" style="mix-blend-mode: normal"><g transform="scale(5.33333,5.33333)"><circle cx="24" cy="24" r="20" fill="#f52b00"></circle><path d="M37.333,24c0,-1.614 -1.31,-2.924 -2.924,-2.924c-0.795,0 -1.497,0.304 -2.012,0.819c-1.988,-1.427 -4.749,-2.363 -7.789,-2.48l1.333,-6.246l4.327,0.912c0.047,1.099 0.959,1.988 2.082,1.988c1.146,0 2.082,-0.936 2.082,-2.082c0,-1.146 -0.936,-2.082 -2.082,-2.082c-0.819,0 -1.52,0.468 -1.848,1.17l-4.842,-1.029c-0.14,-0.023 -0.281,0 -0.398,0.07c-0.117,0.07 -0.187,0.187 -0.234,0.327l-1.474,6.971c-3.111,0.094 -5.895,1.006 -7.906,2.48c-0.515,-0.491 -1.24,-0.819 -2.012,-0.819c-1.614,0 -2.924,1.31 -2.924,2.924c0,1.193 0.702,2.199 1.731,2.667c-0.047,0.281 -0.07,0.585 -0.07,0.889c0,4.491 5.216,8.117 11.673,8.117c6.457,0 11.673,-3.626 11.673,-8.117c0,-0.304 -0.023,-0.585 -0.07,-0.865c0.959,-0.468 1.684,-1.497 1.684,-2.69zM17.333,26.082c0,-1.146 0.936,-2.082 2.082,-2.082c1.146,0 2.082,0.936 2.082,2.082c0,1.146 -0.936,2.082 -2.082,2.082c-1.146,0 -2.082,-0.936 -2.082,-2.082zM28.959,31.579c-1.427,1.427 -4.14,1.52 -4.936,1.52c-0.795,0 -3.532,-0.117 -4.936,-1.52c-0.211,-0.211 -0.211,-0.561 0,-0.772c0.211,-0.211 0.561,-0.211 0.772,0c0.889,0.889 2.807,1.216 4.187,1.216c1.38,0 3.275,-0.327 4.187,-1.216c0.211,-0.211 0.561,-0.211 0.772,0c0.165,0.234 0.165,0.561 -0.046,0.772zM28.585,28.164c-1.146,0 -2.082,-0.936 -2.082,-2.082c0,-1.146 0.936,-2.082 2.082,-2.082c1.146,0 2.082,0.936 2.082,2.082c0,1.146 -0.936,2.082 -2.082,2.082z" fill="#fae56b"></path></g></g></svg>