<svg xmlns="http://www.w3.org/2000/svg" xmlns:xlink="http://www.w3.org/1999/xlink" viewBox="0,0,256,256" width="48px" height="48px" fill-rule="nonzero"><g fill="#d95cfa" fill-rule="nonzero" stroke="none" stroke-width="1" stroke-linecap="butt" stroke-linejoin="miter" stroke-miterlimit="10" stroke-dasharray="" stroke-dashoffset="0" font-family="none" font-weight="none" font-size="none" text-anchor="none" style="mix-blend-mode: normal"><path d="M0,256v-256h256v256z" id="bgRectangle"></path></g><g fill="none" fill-rule="nonzero" stroke="none" stroke-width="1" stroke-linecap="butt" stroke-linejoin="miter" stroke-miterlimit="10" stroke-dasharray="" stroke-dashoffset="0" font-family="none" font-weight="none" font-size="none" text-anchor="none" style="mix-blend-mode: normal"><g transform="scale(5.33333,5.33333)"><path d="M12.193,19.555c-1.94,-1.741 -4.79,-1.727 -6.365,0.029c-1.576,1.756 -1.301,5.023 0.926,6.632zM35.807,19.555c1.939,-1.741 4.789,-1.727 6.365,0.029c1.575,1.756 1.302,5.023 -0.927,6.632zM38.32,6.975c-1.933,0 -3.5,1.567 -3.5,3.5c0,1.933 1.567,3.5 3.5,3.5c1.933,0 3.5,-1.567 3.5,-3.5c0,-1.933 -1.567,-3.5 -3.5,-3.5z" fill="#67ff00"></path><path d="M24.085,15.665c-9.98807,0 -18.085,5.79612 -18.085,12.946c0,7.14988 8.09693,12.946 18.085,12.946c9.98807,0 18.085,-5.79612 18.085,-12.946c0,-7.14988 -8.09693,-12.946 -18.085,-12.946z" fill="#67ff00"></path><g fill="#d84315"><path d="M30.365,23.506c-1.59279,0 -2.884,1.29121 -2.884,2.884c0,1.59279 1.29121,2.884 2.884,2.884c1.59279,0 2.884,-1.29121 2.884,-2.884c0,-1.59279 -1.29121,-2.884 -2.884,-2.884zM17.635,23.506c-1.59279,0 -2.884,1.29121 -2.884,2.884c0,1.59279 1.29121,2.884 2.884,2.884c1.59279,0 2.884,-1.29121 2.884,-2.884c0,-1.59279 -1.29121,-2.884 -2.884,-2.884z"></path></g><g fill="#37474f"><path d="M24.002,34.902c-3.252,0 -6.14,-0.745 -8.002,-1.902c1.024,2.044 4.196,4 8.002,4c3.802,0 6.976,-1.956 7.998,-4c-1.857,1.157 -4.746,1.902 -7.998,1.902zM41.83,27.026l-1.17,-1.621c0.831,-0.6 1.373,-1.556 1.488,-2.623c0.105,-0.98 -0.157,-1.903 -0.721,-2.531c-0.571,-0.637 -1.391,-0.99 -2.307,-0.994c-0.927,0.013 -1.894,0.365 -2.646,1.041l-1.336,-1.488c1.123,-1.008 2.545,-1.523 3.991,-1.553c1.488,0.007 2.833,0.596 3.786,1.658c0.942,1.05 1.387,2.537 1.221,4.081c-0.175,1.63 -1.015,3.1 -2.306,4.03zM6.169,27.026c-1.29,-0.932 -2.131,-2.401 -2.306,-4.031c-0.166,-1.543 0.279,-3.03 1.221,-4.079c0.953,-1.062 2.297,-1.651 3.785,-1.658c0.009,0 0.018,0 0.027,0c1.441,0 2.849,0.551 3.965,1.553l-1.336,1.488c-0.753,-0.676 -1.689,-1.005 -2.646,-1.041c-0.916,0.004 -1.735,0.357 -2.306,0.994c-0.563,0.628 -0.826,1.55 -0.721,2.53c0.115,1.067 0.657,2.023 1.488,2.624zM25,16.84h-2c0,-2.885 0,-10.548 4.979,-10.548c2.154,0 3.193,1.211 3.952,2.096c0.629,0.734 0.961,1.086 1.616,1.086h1.37v2h-1.37c-1.604,0 -2.453,-0.99 -3.135,-1.785c-0.67,-0.781 -1.198,-1.398 -2.434,-1.398c-2.003,0.001 -2.978,2.797 -2.978,8.549z"></path><path d="M24.085,16.95c9.421,0 17.085,5.231 17.085,11.661c0,6.431 -7.664,11.662 -17.085,11.662c-9.421,0 -17.085,-5.231 -17.085,-11.662c0,-6.43 7.664,-11.661 17.085,-11.661M24.085,14.95c-10.541,0 -19.085,6.116 -19.085,13.661c0,7.546 8.545,13.662 19.085,13.662c10.54,0 19.085,-6.116 19.085,-13.662c0,-7.545 -8.545,-13.661 -19.085,-13.661zM38.32,7.975c1.379,0 2.5,1.122 2.5,2.5c0,1.378 -1.121,2.5 -2.5,2.5c-1.379,0 -2.5,-1.122 -2.5,-2.5c0,-1.378 1.121,-2.5 2.5,-2.5M38.32,5.975c-2.484,0 -4.5,2.015 -4.5,4.5c0,2.485 2.016,4.5 4.5,4.5c2.486,0 4.5,-2.015 4.5,-4.5c0,-2.485 -2.013,-4.5 -4.5,-4.5z"></path></g></g></g></svg>